<svg width="90" height="36" viewBox="0 0 90 36" fill="none" xmlns="http://www.w3.org/2000/svg">
<g id="IIFL Home Loan-Vertical" clip-path="url(#clip0_1932_7519)">
<g id="Layer_1">
<g id="Group">
<path id="Vector" fill-rule="evenodd" clip-rule="evenodd" d="M18.0016 0C27.9413 0 36.0032 8.05873 36.0032 18.0016C36.0032 27.9445 27.9445 36.0032 18.0016 36.0032C8.05873 36.0032 0 27.9413 0 18.0016C0 8.06198 8.05873 0 18.0016 0Z" fill="#F37021"/>
<path id="Vector_2" fill-rule="evenodd" clip-rule="evenodd" d="M15.5726 18.728L16.3022 17.0125H14.3759L15.5726 18.728ZM15.258 15.2127L16.3022 17.0157L17.0708 15.2127H15.258ZM15.258 15.2127L16.325 13.0301H14.0062L15.2613 15.2127H15.258ZM9.38504 13.0334L11.6875 17.5151L14.003 13.0334H9.38504ZM11.6875 17.5151L9.25856 22.2045H14.0938L12.9393 19.9474L11.6875 17.5119V17.5151ZM12.8777 15.2127L14.0289 17.7195L14.3727 17.0157L15.2548 15.2127H12.8745H12.8777ZM14.0289 17.7195L12.9393 19.9474H15.0505L14.0289 17.7195ZM15.5726 18.728L15.0505 19.9474H16.4222L15.5693 18.728H15.5726ZM14.097 22.2045H16.0817L15.0505 19.9506L14.0938 22.2045H14.097ZM16.2471 26.3911L14.0938 22.2045L12.3069 26.3911H16.2471ZM18.0016 22.2045L17.6578 21.7115L16.4255 19.9474H19.5776L18.0016 22.2045ZM12.0151 9.60559L15.2904 5.33138H9.5407L12.0151 9.60559ZM15.7866 9.60559H12.0151L14.0062 13.0301L15.7866 9.60559ZM9.38504 13.0334L12.0118 9.60883H7.62411L9.38504 13.0334ZM9.38504 13.0334H2.57484L5.89238 17.5865L9.38504 13.0334ZM9.25856 22.2045L7.08903 26.3911H12.3069L9.25856 22.2045ZM2.35107 22.2045H9.25856L5.89238 17.5865L2.35107 22.2045ZM10.8541 29.7994H14.791L12.3069 26.3911L10.8541 29.7994ZM20.4273 18.728L19.6976 17.0125H21.6239L20.4273 18.728ZM20.7418 15.2127L19.6976 17.0157L18.929 15.2127H20.7418ZM20.7418 15.2127L19.6749 13.0301H21.9936L20.7418 15.2127ZM26.6148 13.0334L24.3123 17.5151L21.9969 13.0334H26.6148ZM24.3123 17.5151L26.7413 22.2045H21.9061L23.0606 19.9474L24.3123 17.5119V17.5151ZM23.1222 15.2127L21.9709 17.7195L21.6272 17.0157L20.7451 15.2127H23.1254H23.1222ZM21.9709 17.7195L23.0606 19.9474H20.9494L21.9709 17.7195ZM20.4273 18.728L20.9494 19.9474H19.5776L20.4305 18.728H20.4273ZM21.9028 22.2045H19.9181L20.9494 19.9506L21.9061 22.2045H21.9028ZM19.7527 26.3911L21.9061 22.2045L23.6929 26.3911H19.7527ZM18.0016 15.2127H18.9323L18.0016 13.0301L17.0708 15.2127H18.0016ZM18.0016 19.9506L18.235 19.5452L19.6976 17.019H16.3022L18.0016 19.9538V19.9506ZM18.0016 26.3879L19.9181 22.2045H16.085L17.5638 25.4344L18.0016 26.3911V26.3879ZM23.988 9.60559L20.7127 5.33138H26.4624L23.988 9.60559ZM20.2132 9.60559H23.9848L21.9936 13.0301L20.2132 9.60559ZM26.6148 13.0334L23.988 9.60883H28.3758L26.6148 13.0334ZM26.6148 13.0334H33.425L30.1075 17.5865L26.6148 13.0334ZM26.7413 22.2045L28.9108 26.3911H23.6929L26.7413 22.2045ZM33.6488 22.2045H26.7413L30.1075 17.5865L33.6488 22.2045ZM25.1458 29.7994H21.2088L23.6929 26.3911L25.1458 29.7994ZM18.0016 5.33462H20.7127L18.0016 1.7998L15.2904 5.33462H16.9217H17.2589H18.0016ZM18.0016 9.60559H20.2165L18.0016 5.33138L15.7866 9.60559H18.0016ZM18.0016 13.0334H19.6782L18.6664 10.9676L18.0016 9.60883L16.325 13.0334H18.0016ZM18.0016 29.7994L18.4523 28.9206L19.7527 26.3911H16.2504L18.0016 29.7994ZM18.0016 34.2001L21.2088 29.7994H14.7943L18.0016 34.2001Z" fill="white"/>
<path id="Vector_3" fill-rule="evenodd" clip-rule="evenodd" d="M52.1206 4.2937H49.1858C48.2486 4.2937 47.4832 5.05904 47.4832 5.99625V22.2953H50.4181C51.3553 22.2953 52.1206 21.53 52.1206 20.5928V4.2937ZM57.0207 4.2937H66.9571V7.29992C66.9571 8.19497 66.2242 8.92788 65.3259 8.92788H60.001V11.2369H65.7897V14.2431C65.7897 15.1381 65.0568 15.871 64.1585 15.871H59.9978V20.6349C59.9978 21.543 59.2519 22.2888 58.3439 22.2888H55.3604V5.94761C55.3604 5.03958 56.1062 4.2937 57.0143 4.2937H57.0207ZM44.237 4.2937H41.3022C40.3649 4.2937 39.5996 5.05904 39.5996 5.99625V22.2953H42.5345C43.4717 22.2953 44.237 21.53 44.237 20.5928V4.2937ZM74.163 4.2937H71.1795C70.2682 4.2937 69.5256 5.03634 69.5256 5.94761V22.2953H78.1648C79.0598 22.2953 79.796 21.5624 79.796 20.6674V17.6579H74.163V4.2937Z" fill="#242056"/>
<path id="Vector_4" fill-rule="evenodd" clip-rule="evenodd" d="M51.5272 32.0987L52.5779 25.5479C52.6071 25.3663 52.7854 25.2139 52.9735 25.2139H53.9562C54.1442 25.2139 54.3356 25.3566 54.381 25.5317L55.5063 29.8254L56.6316 25.5317C56.677 25.3566 56.8683 25.2139 57.0564 25.2139H58.039C58.2271 25.2139 58.4055 25.3631 58.4347 25.5479L59.4854 32.0987C59.5146 32.2803 59.3849 32.4327 59.1968 32.4327H58.5255C58.3374 32.4327 58.159 32.2835 58.1298 32.0987L57.4229 27.6818L56.2619 32.1117C56.2262 32.2479 56.0997 32.3679 55.9571 32.4133C55.9246 32.4262 55.8857 32.4327 55.8468 32.4327H55.1658C55.1269 32.4327 55.0879 32.4262 55.0555 32.4133C54.9128 32.3679 54.7863 32.2511 54.7507 32.1117L53.5897 27.6818L52.8827 32.0987C52.8536 32.2803 52.6752 32.4327 52.4871 32.4327H51.8158C51.6277 32.4327 51.498 32.2835 51.5272 32.0987ZM81.0964 28.9855H79.783L80.4381 26.683L81.0932 28.9855H81.0964ZM79.3322 25.8236L77.5616 32.0371C77.5 32.2544 77.6394 32.4295 77.8729 32.4295H78.3756C78.6091 32.4295 78.8523 32.2511 78.9139 32.0371L79.4003 30.3345H81.4823L81.9655 32.0371C82.0271 32.2544 82.2704 32.4295 82.5039 32.4295H83.0065C83.24 32.4295 83.3794 32.2511 83.3211 32.0371L81.5504 25.8236C81.3104 24.9837 79.569 24.9999 79.3322 25.8236ZM74.3803 25.2172H74.6754C74.8764 25.2172 75.0775 25.2463 75.2753 25.2917C75.5088 25.3436 75.7326 25.4344 75.9434 25.5577C76.1704 25.6906 76.3682 25.8722 76.5336 26.0863C76.7249 26.3327 76.8579 26.6278 76.9487 26.9359C77.0654 27.3218 77.1043 27.7467 77.1043 28.152V29.5043C77.1043 29.9065 77.0622 30.3216 76.9487 30.7075C76.8546 31.0123 76.7249 31.3074 76.5336 31.5506C76.3649 31.7647 76.1704 31.9463 75.9434 32.0825C75.7326 32.209 75.5088 32.2998 75.2753 32.3549C75.058 32.4068 74.8375 32.436 74.617 32.4327H74.5651H74.5456H74.4321C74.2116 32.4327 73.9879 32.4068 73.7738 32.3549C73.5403 32.2998 73.3166 32.2057 73.1058 32.0825C72.8788 31.9463 72.6842 31.7647 72.5156 31.5506C72.3242 31.3042 72.1913 31.0091 72.1005 30.7075C71.9837 30.3248 71.9448 29.9065 71.9448 29.5043V28.152C71.9448 27.7467 71.9837 27.3251 72.1005 26.9359C72.1913 26.6311 72.3242 26.3327 72.5156 26.0863C72.6842 25.8722 72.8788 25.6906 73.1058 25.5577C73.3166 25.4344 73.5403 25.3436 73.7738 25.2917C73.9716 25.2463 74.1727 25.2204 74.3738 25.2204H74.3867L74.3803 25.2172ZM74.4127 31.0804C74.4127 31.0804 74.4321 31.0804 74.4419 31.0804H74.5651H74.6073C74.8116 31.0804 75.0061 31.0707 75.1845 30.9637C75.3661 30.8566 75.4861 30.675 75.5704 30.474C75.6904 30.1821 75.7228 29.8189 75.7228 29.5043V28.152C75.7228 27.8926 75.7034 27.6137 75.6353 27.364C75.4861 26.8159 75.1683 26.5889 74.6656 26.5759H74.3867C73.8841 26.5889 73.5663 26.8159 73.4171 27.364C73.349 27.6137 73.3295 27.8926 73.3295 28.152V29.5043C73.3295 29.8189 73.3587 30.1821 73.482 30.474C73.5663 30.675 73.6863 30.8566 73.8679 30.9637C74.0397 31.0642 74.2246 31.0837 74.4192 31.0804H74.4127ZM68.5948 32.4327H71.147C71.3351 32.4327 71.4875 32.2803 71.4875 32.0922V31.4242C71.4875 31.2361 71.3351 31.0837 71.147 31.0837H68.9451C68.7408 31.0837 68.5754 30.9183 68.5754 30.714V25.5544C68.5754 25.3663 68.423 25.2139 68.2349 25.2139H67.5668C67.3787 25.2139 67.2263 25.3663 67.2263 25.5544V31.061C67.2263 31.8133 67.8425 32.4295 68.5948 32.4295V32.4327ZM88.1109 32.4327C87.9974 32.4327 87.9001 32.41 87.8126 32.3679C87.712 32.3192 87.6374 32.2446 87.5856 32.1441L85.2668 27.7758V32.089C85.2668 32.2771 85.1144 32.4295 84.9263 32.4295H84.255C84.067 32.4295 83.9145 32.2771 83.9145 32.089V25.5577C83.9145 25.3696 84.067 25.2172 84.255 25.2172H84.962C85.1404 25.2172 85.2701 25.2463 85.3576 25.3015C85.403 25.3307 85.442 25.3663 85.4776 25.4085C85.5101 25.4442 85.5393 25.4896 85.5652 25.535L87.8547 29.8611V25.5577C87.8547 25.3696 88.0071 25.2172 88.1952 25.2172H88.8665C89.0546 25.2172 89.207 25.3696 89.207 25.5577V32.089C89.207 32.2771 89.0546 32.4295 88.8665 32.4295H88.1044L88.1109 32.4327ZM48.2161 25.2172H48.5112C48.7123 25.2172 48.9134 25.2463 49.1112 25.2917C49.3447 25.3436 49.5684 25.4344 49.7792 25.5577C50.0062 25.6906 50.2041 25.8722 50.3695 26.0863C50.5608 26.3327 50.6937 26.6278 50.7845 26.9359C50.9013 27.3218 50.9402 27.7467 50.9402 28.152V29.5043C50.9402 29.9065 50.8981 30.3216 50.7845 30.7075C50.6937 31.0123 50.5608 31.3074 50.3695 31.5506C50.2008 31.7647 50.0062 31.9463 49.7792 32.0825C49.5684 32.209 49.3447 32.2998 49.1112 32.3549C48.8939 32.4068 48.6734 32.436 48.4529 32.4327H48.401H48.3815H48.268C48.0475 32.4327 47.8237 32.4068 47.6097 32.3549C47.3762 32.2998 47.1524 32.2057 46.9417 32.0825C46.7146 31.9463 46.5201 31.7647 46.3514 31.5506C46.1601 31.3042 46.0271 31.0091 45.9363 30.7075C45.8196 30.3248 45.7807 29.9065 45.7807 29.5043V28.152C45.7807 27.7467 45.8196 27.3251 45.9363 26.9359C46.0271 26.6311 46.1601 26.3327 46.3514 26.0863C46.5201 25.8722 46.7146 25.6906 46.9417 25.5577C47.1524 25.4344 47.3762 25.3436 47.6097 25.2917C47.8075 25.2463 48.0086 25.2204 48.2096 25.2204H48.2226L48.2161 25.2172ZM48.2486 31.0804C48.2486 31.0804 48.268 31.0804 48.2777 31.0804H48.401H48.4399C48.6442 31.0804 48.8388 31.0707 49.0171 30.9637C49.1987 30.8566 49.3187 30.675 49.403 30.474C49.523 30.1821 49.5555 29.8189 49.5555 29.5043V28.152C49.5555 27.8926 49.536 27.6137 49.4679 27.364C49.3187 26.8159 49.0009 26.5889 48.4983 26.5759H48.2194C47.7167 26.5889 47.3989 26.8159 47.2497 27.364C47.1816 27.6137 47.1622 27.8926 47.1622 28.152V29.5043C47.1622 29.8189 47.1914 30.1821 47.3146 30.474C47.3989 30.675 47.5189 30.8566 47.7005 30.9637C47.8724 31.0642 48.0572 31.0837 48.2518 31.0804H48.2486ZM39.5996 25.5577V32.0922C39.5996 32.2803 39.752 32.4327 39.9401 32.4327H40.6082C40.7963 32.4327 40.9487 32.2803 40.9487 32.0922V29.3714H43.449V32.0922C43.449 32.2803 43.6014 32.4327 43.7895 32.4327H44.4575C44.6456 32.4327 44.7981 32.2803 44.7981 32.0922V25.5577C44.7981 25.3696 44.6456 25.2172 44.4575 25.2172H43.7895C43.6014 25.2172 43.449 25.3696 43.449 25.5577V28.0255H40.9487V25.5577C40.9487 25.3696 40.7963 25.2172 40.6082 25.2172H39.9401C39.752 25.2172 39.5996 25.3696 39.5996 25.5577ZM61.4279 25.2172H63.9801C64.1682 25.2172 64.3206 25.3696 64.3206 25.5577V26.2257C64.3206 26.4138 64.1682 26.5662 63.9801 26.5662H61.7782C61.5738 26.5662 61.4085 26.7316 61.4085 26.9359V28.1391H63.9801C64.1682 28.1391 64.3206 28.2915 64.3206 28.4796V29.1476C64.3206 29.3357 64.1682 29.4881 63.9801 29.4881H61.4085V30.7204C61.4085 30.9247 61.5738 31.0901 61.7782 31.0901H63.9801C64.1682 31.0901 64.3206 31.2426 64.3206 31.4306V32.0987C64.3206 32.2868 64.1682 32.4392 63.9801 32.4392H61.4279C60.6755 32.4392 60.0594 31.823 60.0594 31.0707V26.5922C60.0594 25.8398 60.6755 25.2236 61.4279 25.2236V25.2172Z" fill="#242056"/>
</g>
</g>
</g>
<defs>
<clipPath id="clip0_1932_7519">
<rect width="89.2136" height="36" fill="white"/>
</clipPath>
</defs>
</svg>
