<svg width="20" height="21" viewBox="0 0 20 21" fill="none" xmlns="http://www.w3.org/2000/svg">
<g id="Frame">
<path id="Vector" d="M17.9422 17.5579L14.0305 13.6469C15.1643 12.2858 15.7297 10.5399 15.609 8.7725C15.4883 7.00512 14.6909 5.35229 13.3827 4.15785C12.0744 2.96341 10.356 2.31932 8.58498 2.35957C6.81394 2.39982 5.12659 3.12131 3.87395 4.37395C2.62131 5.62659 1.89982 7.31394 1.85957 9.08498C1.81932 10.856 2.46341 12.5744 3.65785 13.8827C4.85229 15.1909 6.50512 15.9883 8.2725 16.109C10.0399 16.2297 11.7858 15.6643 13.1469 14.5305L17.0579 18.4422C17.1159 18.5003 17.1849 18.5464 17.2607 18.5778C17.3366 18.6092 17.4179 18.6254 17.5001 18.6254C17.5822 18.6254 17.6635 18.6092 17.7394 18.5778C17.8152 18.5464 17.8842 18.5003 17.9422 18.4422C18.0003 18.3842 18.0464 18.3152 18.0778 18.2394C18.1092 18.1635 18.1254 18.0822 18.1254 18.0001C18.1254 17.9179 18.1092 17.8366 18.0778 17.7607C18.0464 17.6849 18.0003 17.6159 17.9422 17.5579ZM3.12506 9.25006C3.12506 8.13754 3.45496 7.05 4.07304 6.12497C4.69112 5.19995 5.56963 4.47898 6.59746 4.05323C7.6253 3.62749 8.7563 3.5161 9.84744 3.73314C10.9386 3.95018 11.9409 4.48591 12.7275 5.27258C13.5142 6.05925 14.0499 7.06153 14.267 8.15267C14.484 9.24382 14.3726 10.3748 13.9469 11.4027C13.5211 12.4305 12.8002 13.309 11.8751 13.9271C10.9501 14.5452 9.86258 14.8751 8.75006 14.8751C7.25872 14.8734 5.82894 14.2802 4.77441 13.2257C3.71987 12.1712 3.12671 10.7414 3.12506 9.25006Z" fill="#242056"/>
</g>
</svg>
